<svg width="234" height="41" viewBox="0 0 234 41" fill="none" xmlns="http://www.w3.org/2000/svg">
<path d="M0.531719 10.24H7.21172V17.48L6.93172 18.36V23.84L7.21172 25.48V39.6H0.531719V10.24ZM4.89172 21.64C5.34505 19.2133 6.13172 17.1067 7.25172 15.32C8.39839 13.5067 9.82505 12.1067 11.5317 11.12C13.2651 10.1333 15.1851 9.64 17.2917 9.64C19.5317 9.64 21.4917 10.1467 23.1717 11.16C24.8784 12.1467 26.2117 13.5467 27.1717 15.36C28.1317 17.1467 28.6117 19.24 28.6117 21.64C28.6117 24.0133 28.1317 26.1067 27.1717 27.92C26.2117 29.7067 24.8784 31.1067 23.1717 32.12C21.4917 33.1067 19.5317 33.6 17.2917 33.6C15.1584 33.6 13.2384 33.1067 11.5317 32.12C9.85172 31.1333 8.43839 29.7467 7.29172 27.96C6.14505 26.1467 5.34505 24.04 4.89172 21.64ZM21.8517 21.64C21.8517 20.3067 21.5717 19.1333 21.0117 18.12C20.4784 17.08 19.7317 16.28 18.7717 15.72C17.8117 15.1333 16.7051 14.84 15.4517 14.84C14.1984 14.84 13.0117 15.1333 11.8917 15.72C10.7717 16.28 9.78505 17.08 8.93172 18.12C8.10505 19.1333 7.45172 20.3067 6.97172 21.64C7.45172 22.9733 8.10505 24.1467 8.93172 25.16C9.78505 26.1733 10.7717 26.9733 11.8917 27.56C13.0117 28.12 14.1984 28.4 15.4517 28.4C16.7051 28.4 17.8117 28.12 18.7717 27.56C19.7317 26.9733 20.4784 26.1733 21.0117 25.16C21.5717 24.1467 21.8517 22.9733 21.8517 21.64ZM42.1639 33.6C40.0572 33.6 38.2572 33.1733 36.7639 32.32C35.2972 31.44 34.1639 30.2 33.3639 28.6C32.5906 27 32.2039 25.1067 32.2039 22.92V10.24H38.8839V21.92C38.8839 23.9467 39.3639 25.4933 40.3239 26.56C41.2839 27.6 42.6439 28.12 44.4039 28.12C45.7106 28.12 46.8172 27.8533 47.7239 27.32C48.6572 26.76 49.3772 25.96 49.8839 24.92C50.3906 23.88 50.6439 22.6667 50.6439 21.28L52.8039 22.44C52.5372 24.7867 51.9106 26.8 50.9239 28.48C49.9372 30.1333 48.6839 31.4 47.1639 32.28C45.6706 33.16 44.0039 33.6 42.1639 33.6ZM52.0439 33L50.6439 24.36V10.24H57.3239V25.36L58.7239 33H52.0439ZM62.6802 2.2H69.3602V17.48L68.4402 19.28V24.24L69.3602 26.08V33H62.6802V2.2ZM67.0002 21.64C67.4268 19.2133 68.2135 17.1067 69.3602 15.32C70.5068 13.5067 71.9335 12.1067 73.6402 11.12C75.3468 10.1333 77.2668 9.64 79.4002 9.64C81.6135 9.64 83.5735 10.1467 85.2802 11.16C86.9868 12.1467 88.3202 13.5467 89.2802 15.36C90.2402 17.1467 90.7202 19.24 90.7202 21.64C90.7202 24.0133 90.2402 26.1067 89.2802 27.92C88.3202 29.7067 86.9868 31.1067 85.2802 32.12C83.5735 33.1067 81.6135 33.6 79.4002 33.6C77.2668 33.6 75.3468 33.1067 73.6402 32.12C71.9335 31.1333 70.5068 29.7467 69.3602 27.96C68.2402 26.1467 67.4535 24.04 67.0002 21.64ZM83.9202 21.64C83.9202 20.3067 83.6402 19.1333 83.0802 18.12C82.5468 17.08 81.8002 16.28 80.8402 15.72C79.8802 15.1333 78.7868 14.84 77.5602 14.84C76.3068 14.84 75.1202 15.1333 74.0002 15.72C72.8802 16.28 71.8935 17.08 71.0402 18.12C70.2135 19.1333 69.5602 20.3067 69.0802 21.64C69.5602 22.9733 70.2135 24.1467 71.0402 25.16C71.8935 26.1733 72.8802 26.9733 74.0002 27.56C75.1202 28.12 76.3068 28.4 77.5602 28.4C78.7868 28.4 79.8802 28.12 80.8402 27.56C81.8002 26.9733 82.5468 26.1733 83.0802 25.16C83.6402 24.1467 83.9202 22.9733 83.9202 21.64ZM94.6333 2.2H101.313V33H94.6333V2.2ZM106.352 10L109.672 10.64L113.032 10V33H106.352V10ZM109.672 7.64C108.472 7.64 107.485 7.33333 106.712 6.72C105.965 6.08 105.592 5.24 105.592 4.2C105.592 3.13333 105.965 2.29333 106.712 1.68C107.485 1.04 108.472 0.719998 109.672 0.719998C110.899 0.719998 111.885 1.04 112.632 1.68C113.379 2.29333 113.752 3.13333 113.752 4.2C113.752 5.24 113.379 6.08 112.632 6.72C111.885 7.33333 110.899 7.64 109.672 7.64ZM130.911 33.6C128.217 33.6 125.804 33.1067 123.671 32.12C121.564 31.1067 119.897 29.6933 118.671 27.88C117.471 26.0667 116.871 23.96 116.871 21.56C116.871 19.1867 117.444 17.1067 118.591 15.32C119.764 13.5333 121.364 12.1467 123.391 11.16C125.417 10.1467 127.724 9.64 130.311 9.64C132.951 9.64 135.217 10.2267 137.111 11.4C139.004 12.5467 140.457 14.1733 141.471 16.28C142.511 18.3867 143.031 20.8667 143.031 23.72H122.231V19.28H139.431L136.831 20.88C136.724 19.5467 136.391 18.4133 135.831 17.48C135.297 16.5467 134.564 15.8267 133.631 15.32C132.697 14.8133 131.604 14.56 130.351 14.56C128.991 14.56 127.804 14.84 126.791 15.4C125.804 15.9333 125.031 16.6933 124.471 17.68C123.937 18.64 123.671 19.7733 123.671 21.08C123.671 22.6533 124.017 24 124.711 25.12C125.404 26.24 126.417 27.0933 127.751 27.68C129.084 28.2667 130.697 28.56 132.591 28.56C134.297 28.56 136.017 28.32 137.751 27.84C139.484 27.3333 141.044 26.6267 142.431 25.72V30.2C140.937 31.2667 139.191 32.1067 137.191 32.72C135.217 33.3067 133.124 33.6 130.911 33.6ZM167.778 33L166.818 24.68L167.898 21.64L166.818 18.64L167.778 10.24H174.698L173.378 21.64L174.698 33H167.778ZM169.538 21.64C169.111 24.04 168.325 26.1467 167.178 27.96C166.058 29.7467 164.631 31.1333 162.898 32.12C161.191 33.1067 159.271 33.6 157.138 33.6C154.925 33.6 152.965 33.1067 151.258 32.12C149.551 31.1067 148.218 29.7067 147.258 27.92C146.325 26.1067 145.858 24.0133 145.858 21.64C145.858 19.24 146.325 17.1467 147.258 15.36C148.218 13.5467 149.551 12.1467 151.258 11.16C152.965 10.1467 154.925 9.64 157.138 9.64C159.271 9.64 161.191 10.1333 162.898 11.12C164.631 12.1067 166.071 13.5067 167.218 15.32C168.365 17.1067 169.138 19.2133 169.538 21.64ZM152.618 21.64C152.618 22.9733 152.885 24.1467 153.418 25.16C153.978 26.1733 154.738 26.9733 155.698 27.56C156.658 28.12 157.765 28.4 159.018 28.4C160.271 28.4 161.445 28.12 162.538 27.56C163.658 26.9733 164.645 26.1733 165.498 25.16C166.351 24.1467 167.018 22.9733 167.498 21.64C167.018 20.3067 166.351 19.1333 165.498 18.12C164.645 17.08 163.658 16.28 162.538 15.72C161.445 15.1333 160.271 14.84 159.018 14.84C157.765 14.84 156.658 15.1333 155.698 15.72C154.738 16.28 153.978 17.08 153.418 18.12C152.885 19.1333 152.618 20.3067 152.618 21.64ZM204.045 25.84C204.045 27.4667 203.565 28.8667 202.605 30.04C201.672 31.2133 200.272 32.1067 198.405 32.72C196.539 33.3067 194.259 33.6 191.565 33.6C188.792 33.6 186.379 33.2667 184.325 32.6C182.272 31.9067 180.672 30.9333 179.525 29.68C178.379 28.4267 177.765 26.9733 177.685 25.32H184.485C184.645 26.0667 185.045 26.72 185.685 27.28C186.325 27.8133 187.152 28.2267 188.165 28.52C189.205 28.8133 190.405 28.96 191.765 28.96C193.659 28.96 195.085 28.7467 196.045 28.32C197.032 27.8933 197.525 27.2533 197.525 26.4C197.525 25.7867 197.179 25.32 196.485 25C195.819 24.68 194.579 24.44 192.765 24.28L188.525 23.96C185.992 23.7467 183.979 23.32 182.485 22.68C180.992 22.04 179.925 21.24 179.285 20.28C178.672 19.2933 178.365 18.2133 178.365 17.04C178.365 15.4133 178.872 14.0533 179.885 12.96C180.899 11.8667 182.312 11.04 184.125 10.48C185.965 9.92 188.085 9.64 190.485 9.64C192.939 9.64 195.125 9.97333 197.045 10.64C198.965 11.3067 200.499 12.2267 201.645 13.4C202.819 14.5733 203.485 15.9333 203.645 17.48H196.845C196.739 16.92 196.432 16.4 195.925 15.92C195.445 15.4133 194.739 15 193.805 14.68C192.872 14.36 191.659 14.2 190.165 14.2C188.485 14.2 187.192 14.4 186.285 14.8C185.379 15.1733 184.925 15.7467 184.925 16.52C184.925 17.0533 185.205 17.4933 185.765 17.84C186.325 18.16 187.365 18.3867 188.885 18.52L194.405 18.96C196.859 19.1733 198.792 19.5867 200.205 20.2C201.619 20.7867 202.605 21.56 203.165 22.52C203.752 23.48 204.045 24.5867 204.045 25.84ZM213.105 40.2C211.611 40.2 210.265 40.0133 209.065 39.64C207.865 39.2667 206.731 38.72 205.665 38V33.2C206.785 33.92 207.851 34.44 208.865 34.76C209.878 35.08 210.998 35.24 212.225 35.24C213.318 35.24 214.291 34.9867 215.145 34.48C215.998 34 216.705 33.1333 217.265 31.88L226.745 10.24H233.825L222.465 34.04C221.771 35.5333 220.931 36.7333 219.945 37.64C218.958 38.5467 217.878 39.2 216.705 39.6C215.558 40 214.358 40.2 213.105 40.2ZM214.545 31.56L204.505 10.24H211.865L221.065 31.56H214.545Z" fill="white"/>
</svg>
