<svg width="22" height="17" viewBox="0 0 22 17" fill="none" xmlns="http://www.w3.org/2000/svg">
<path d="M16.5 0C14.55 0 12.45 0.4 11 1.5C9.55 0.4 7.45 0 5.5 0C4.05 0 2.51 0.22 1.22 0.79C0.49 1.12 0 1.83 0 2.64V13.92C0 15.22 1.22 16.18 2.48 15.86C3.46 15.61 4.5 15.5 5.5 15.5C7.06 15.5 8.72 15.76 10.06 16.42C10.66 16.72 11.34 16.72 11.93 16.42C13.27 15.75 14.93 15.5 16.49 15.5C17.49 15.5 18.53 15.61 19.51 15.86C20.77 16.19 21.99 15.23 21.99 13.92V2.64C21.99 1.83 21.5 1.12 20.77 0.79C19.49 0.22 17.95 0 16.5 0ZM20 12.73C20 13.36 19.42 13.82 18.8 13.71C18.05 13.57 17.27 13.51 16.5 13.51C14.8 13.51 12.35 14.16 11 15.01V3.5C12.35 2.65 14.8 2 16.5 2C17.42 2 18.33 2.09 19.2 2.28C19.66 2.38 20 2.79 20 3.26V12.73Z" fill="url(#paint0_linear_408_29)"/>
<path d="M12.9799 6.51012C12.6599 6.51012 12.3699 6.31012 12.2699 5.99012C12.1399 5.60012 12.3599 5.1701 12.7499 5.0501C14.2899 4.5501 16.2799 4.3901 18.1099 4.6001C18.5199 4.6501 18.8199 5.0201 18.7699 5.4301C18.7199 5.84012 18.3499 6.14012 17.9399 6.09012C16.3199 5.90012 14.5499 6.05012 13.2099 6.48012C13.1299 6.49012 13.0499 6.51012 12.9799 6.51012Z" fill="url(#paint1_linear_408_29)"/>
<path d="M12.9799 9.17001C12.6599 9.17001 12.3699 8.97001 12.2699 8.65001C12.1399 8.26001 12.3599 7.83001 12.7499 7.71001C14.2799 7.21001 16.2799 7.05001 18.1099 7.26001C18.5199 7.31001 18.8199 7.68001 18.7699 8.09001C18.7199 8.50001 18.3499 8.80001 17.9399 8.75001C16.3199 8.56001 14.5499 8.71001 13.2099 9.14001C13.1299 9.16001 13.0499 9.17001 12.9799 9.17001Z" fill="url(#paint2_linear_408_29)"/>
<path d="M12.9799 11.8299C12.6599 11.8299 12.3699 11.6299 12.2699 11.3099C12.1399 10.9199 12.3599 10.4899 12.7499 10.3699C14.2799 9.86992 16.2799 9.70992 18.1099 9.91992C18.5199 9.96992 18.8199 10.3399 18.7699 10.7499C18.7199 11.1599 18.3499 11.4499 17.9399 11.4099C16.3199 11.2199 14.5499 11.3699 13.2099 11.7999C13.1299 11.8199 13.0499 11.8299 12.9799 11.8299Z" fill="url(#paint3_linear_408_29)"/>
<defs>
<linearGradient id="paint0_linear_408_29" x1="10.995" y1="0" x2="10.995" y2="16.645" gradientUnits="userSpaceOnUse">
<stop stop-color="#C8DEB8"/>
<stop offset="1" stop-color="#71C89D"/>
</linearGradient>
<linearGradient id="paint1_linear_408_29" x1="15.5039" y1="4.51001" x2="15.5039" y2="6.51012" gradientUnits="userSpaceOnUse">
<stop stop-color="#C8DEB8"/>
<stop offset="1" stop-color="#71C89D"/>
</linearGradient>
<linearGradient id="paint2_linear_408_29" x1="15.5039" y1="7.16991" x2="15.5039" y2="9.17001" gradientUnits="userSpaceOnUse">
<stop stop-color="#C8DEB8"/>
<stop offset="1" stop-color="#71C89D"/>
</linearGradient>
<linearGradient id="paint3_linear_408_29" x1="15.5039" y1="9.82992" x2="15.5039" y2="11.8299" gradientUnits="userSpaceOnUse">
<stop stop-color="#C8DEB8"/>
<stop offset="1" stop-color="#71C89D"/>
</linearGradient>
</defs>
</svg>
