<svg width="520" height="48" viewBox="0 0 520 48" fill="none" xmlns="http://www.w3.org/2000/svg">
<path d="M0.590909 47V0.454544H9.02273V39.9318H29.5227V47H0.590909ZM58.7273 32.3182V12.0909H66.9545V47H58.9773V40.7955H58.6136C57.8258 42.75 56.5303 44.3485 54.7273 45.5909C52.9394 46.8333 50.7348 47.4545 48.1136 47.4545C45.8258 47.4545 43.803 46.947 42.0455 45.9318C40.303 44.9015 38.9394 43.4091 37.9545 41.4545C36.9697 39.4848 36.4773 37.1061 36.4773 34.3182V12.0909H44.7045V33.0455C44.7045 35.2576 45.3106 37.0152 46.5227 38.3182C47.7348 39.6212 49.3258 40.2727 51.2955 40.2727C52.5076 40.2727 53.6818 39.9773 54.8182 39.3864C55.9545 38.7955 56.8864 37.9167 57.6136 36.75C58.3561 35.5682 58.7273 34.0909 58.7273 32.3182ZM90.642 47.6818C87.1572 47.6818 84.1648 46.9167 81.6648 45.3864C79.1799 43.8561 77.2633 41.7424 75.9148 39.0455C74.5814 36.3333 73.9148 33.2121 73.9148 29.6818C73.9148 26.1364 74.5966 23.0076 75.9602 20.2955C77.3239 17.5682 79.2481 15.447 81.733 13.9318C84.233 12.4015 87.1875 11.6364 90.5966 11.6364C93.4299 11.6364 95.9375 12.1591 98.1193 13.2045C100.316 14.2348 102.066 15.697 103.369 17.5909C104.672 19.4697 105.415 21.6667 105.597 24.1818H97.733C97.4148 22.5 96.6572 21.0985 95.4602 19.9773C94.2784 18.8409 92.6951 18.2727 90.7102 18.2727C89.0284 18.2727 87.5511 18.7273 86.2784 19.6364C85.0057 20.5303 84.0133 21.8182 83.3011 23.5C82.6042 25.1818 82.2557 27.197 82.2557 29.5455C82.2557 31.9242 82.6042 33.9697 83.3011 35.6818C83.9981 37.3788 84.9754 38.6894 86.233 39.6136C87.5057 40.5227 88.9981 40.9773 90.7102 40.9773C91.9223 40.9773 93.0057 40.75 93.9602 40.2955C94.9299 39.8258 95.7405 39.1515 96.392 38.2727C97.0436 37.3939 97.4905 36.3258 97.733 35.0682H105.597C105.4 37.5379 104.672 39.7273 103.415 41.6364C102.157 43.5303 100.445 45.0152 98.2784 46.0909C96.1117 47.1515 93.5663 47.6818 90.642 47.6818ZM122.398 47.7045C120.186 47.7045 118.193 47.3106 116.42 46.5227C114.663 45.7197 113.269 44.5379 112.239 42.9773C111.223 41.4167 110.716 39.4924 110.716 37.2045C110.716 35.2348 111.08 33.6061 111.807 32.3182C112.534 31.0303 113.527 30 114.784 29.2273C116.042 28.4545 117.458 27.8712 119.034 27.4773C120.625 27.0682 122.269 26.7727 123.966 26.5909C126.011 26.3788 127.67 26.1894 128.943 26.0227C130.216 25.8409 131.14 25.5682 131.716 25.2045C132.307 24.8258 132.602 24.2424 132.602 23.4545V23.3182C132.602 21.6061 132.095 20.2803 131.08 19.3409C130.064 18.4015 128.602 17.9318 126.693 17.9318C124.678 17.9318 123.08 18.3712 121.898 19.25C120.731 20.1288 119.943 21.1667 119.534 22.3636L111.852 21.2727C112.458 19.1515 113.458 17.3788 114.852 15.9545C116.246 14.5151 117.951 13.4394 119.966 12.7273C121.981 12 124.208 11.6364 126.648 11.6364C128.33 11.6364 130.004 11.8333 131.67 12.2273C133.337 12.6212 134.86 13.2727 136.239 14.1818C137.617 15.0758 138.723 16.2955 139.557 17.8409C140.405 19.3864 140.83 21.3182 140.83 23.6364V47H132.92V42.2045H132.648C132.148 43.1742 131.443 44.0833 130.534 44.9318C129.64 45.7652 128.511 46.4394 127.148 46.9545C125.799 47.4545 124.216 47.7045 122.398 47.7045ZM124.534 41.6591C126.186 41.6591 127.617 41.3333 128.83 40.6818C130.042 40.0152 130.973 39.1364 131.625 38.0455C132.292 36.9545 132.625 35.7652 132.625 34.4773V30.3636C132.367 30.5758 131.928 30.7727 131.307 30.9545C130.701 31.1364 130.019 31.2955 129.261 31.4318C128.504 31.5682 127.754 31.6894 127.011 31.7955C126.269 31.9015 125.625 31.9924 125.08 32.0682C123.852 32.2348 122.754 32.5076 121.784 32.8864C120.814 33.2652 120.049 33.7955 119.489 34.4773C118.928 35.1439 118.648 36.0076 118.648 37.0682C118.648 38.5833 119.201 39.7273 120.307 40.5C121.413 41.2727 122.822 41.6591 124.534 41.6591ZM176.693 21.3182L169.193 22.1364C168.981 21.3788 168.61 20.6667 168.08 20C167.564 19.3333 166.867 18.7955 165.989 18.3864C165.11 17.9773 164.034 17.7727 162.761 17.7727C161.049 17.7727 159.61 18.1439 158.443 18.8864C157.292 19.6288 156.723 20.5909 156.739 21.7727C156.723 22.7879 157.095 23.6136 157.852 24.25C158.625 24.8864 159.898 25.4091 161.67 25.8182L167.625 27.0909C170.928 27.803 173.383 28.9318 174.989 30.4773C176.61 32.0227 177.428 34.0455 177.443 36.5455C177.428 38.7424 176.784 40.6818 175.511 42.3636C174.254 44.0303 172.504 45.3333 170.261 46.2727C168.019 47.2121 165.443 47.6818 162.534 47.6818C158.261 47.6818 154.822 46.7879 152.216 45C149.61 43.197 148.057 40.6894 147.557 37.4773L155.58 36.7045C155.943 38.2803 156.716 39.4697 157.898 40.2727C159.08 41.0758 160.617 41.4773 162.511 41.4773C164.466 41.4773 166.034 41.0758 167.216 40.2727C168.413 39.4697 169.011 38.4773 169.011 37.2955C169.011 36.2955 168.625 35.4697 167.852 34.8182C167.095 34.1667 165.913 33.6667 164.307 33.3182L158.352 32.0682C155.004 31.3712 152.527 30.197 150.92 28.5455C149.314 26.8788 148.519 24.7727 148.534 22.2273C148.519 20.0758 149.102 18.2121 150.284 16.6364C151.481 15.0455 153.14 13.8182 155.261 12.9545C157.398 12.0758 159.86 11.6364 162.648 11.6364C166.739 11.6364 169.958 12.5076 172.307 14.25C174.67 15.9924 176.133 18.3485 176.693 21.3182ZM200.466 47V0.454544H230.284V7.52273H208.898V20.1591H228.239V27.2273H208.898V47H200.466ZM250.494 47.6818C246.994 47.6818 243.972 46.9545 241.426 45.5C238.896 44.0303 236.949 41.9545 235.585 39.2727C234.222 36.5758 233.54 33.4015 233.54 29.75C233.54 26.1591 234.222 23.0076 235.585 20.2955C236.964 17.5682 238.888 15.447 241.358 13.9318C243.828 12.4015 246.729 11.6364 250.062 11.6364C252.214 11.6364 254.244 11.9848 256.153 12.6818C258.078 13.3636 259.775 14.4242 261.244 15.8636C262.729 17.303 263.896 19.1364 264.744 21.3636C265.593 23.5758 266.017 26.2121 266.017 29.2727V31.7955H237.403V26.25H258.131C258.116 24.6742 257.775 23.2727 257.108 22.0455C256.441 20.803 255.509 19.8258 254.312 19.1136C253.131 18.4015 251.752 18.0455 250.176 18.0455C248.494 18.0455 247.017 18.4545 245.744 19.2727C244.472 20.0758 243.479 21.1364 242.767 22.4545C242.07 23.7576 241.714 25.1894 241.699 26.75V31.5909C241.699 33.6212 242.07 35.3636 242.812 36.8182C243.555 38.2576 244.593 39.3636 245.926 40.1364C247.259 40.8939 248.82 41.2727 250.608 41.2727C251.805 41.2727 252.888 41.1061 253.858 40.7727C254.828 40.4242 255.669 39.9167 256.381 39.25C257.093 38.5833 257.631 37.7576 257.994 36.7727L265.676 37.6364C265.191 39.6667 264.267 41.4394 262.903 42.9545C261.555 44.4545 259.828 45.6212 257.722 46.4545C255.616 47.2727 253.206 47.6818 250.494 47.6818ZM272.977 47V12.0909H280.955V17.9091H281.318C281.955 15.8939 283.045 14.3409 284.591 13.25C286.152 12.1439 287.932 11.5909 289.932 11.5909C290.386 11.5909 290.894 11.6136 291.455 11.6591C292.03 11.6894 292.508 11.7424 292.886 11.8182V19.3864C292.538 19.2652 291.985 19.1591 291.227 19.0682C290.485 18.9621 289.765 18.9091 289.068 18.9091C287.568 18.9091 286.22 19.2348 285.023 19.8864C283.841 20.5227 282.909 21.4091 282.227 22.5455C281.545 23.6818 281.205 24.9924 281.205 26.4773V47H272.977ZM306.58 26.5455V47H298.352V12.0909H306.216V18.0227H306.625C307.428 16.0682 308.708 14.5152 310.466 13.3636C312.239 12.2121 314.428 11.6364 317.034 11.6364C319.443 11.6364 321.542 12.1515 323.33 13.1818C325.133 14.2121 326.527 15.7045 327.511 17.6591C328.511 19.6136 329.004 21.9848 328.989 24.7727V47H320.761V26.0455C320.761 23.7121 320.155 21.8864 318.943 20.5682C317.746 19.25 316.087 18.5909 313.966 18.5909C312.527 18.5909 311.246 18.9091 310.125 19.5455C309.019 20.1667 308.148 21.0682 307.511 22.25C306.89 23.4318 306.58 24.8636 306.58 26.5455ZM347.398 47.7045C345.186 47.7045 343.193 47.3106 341.42 46.5227C339.663 45.7197 338.269 44.5379 337.239 42.9773C336.223 41.4167 335.716 39.4924 335.716 37.2045C335.716 35.2348 336.08 33.6061 336.807 32.3182C337.534 31.0303 338.527 30 339.784 29.2273C341.042 28.4545 342.458 27.8712 344.034 27.4773C345.625 27.0682 347.269 26.7727 348.966 26.5909C351.011 26.3788 352.67 26.1894 353.943 26.0227C355.216 25.8409 356.14 25.5682 356.716 25.2045C357.307 24.8258 357.602 24.2424 357.602 23.4545V23.3182C357.602 21.6061 357.095 20.2803 356.08 19.3409C355.064 18.4015 353.602 17.9318 351.693 17.9318C349.678 17.9318 348.08 18.3712 346.898 19.25C345.731 20.1288 344.943 21.1667 344.534 22.3636L336.852 21.2727C337.458 19.1515 338.458 17.3788 339.852 15.9545C341.246 14.5151 342.951 13.4394 344.966 12.7273C346.981 12 349.208 11.6364 351.648 11.6364C353.33 11.6364 355.004 11.8333 356.67 12.2273C358.337 12.6212 359.86 13.2727 361.239 14.1818C362.617 15.0758 363.723 16.2955 364.557 17.8409C365.405 19.3864 365.83 21.3182 365.83 23.6364V47H357.92V42.2045H357.648C357.148 43.1742 356.443 44.0833 355.534 44.9318C354.64 45.7652 353.511 46.4394 352.148 46.9545C350.799 47.4545 349.216 47.7045 347.398 47.7045ZM349.534 41.6591C351.186 41.6591 352.617 41.3333 353.83 40.6818C355.042 40.0152 355.973 39.1364 356.625 38.0455C357.292 36.9545 357.625 35.7652 357.625 34.4773V30.3636C357.367 30.5758 356.928 30.7727 356.307 30.9545C355.701 31.1364 355.019 31.2955 354.261 31.4318C353.504 31.5682 352.754 31.6894 352.011 31.7955C351.269 31.9015 350.625 31.9924 350.08 32.0682C348.852 32.2348 347.754 32.5076 346.784 32.8864C345.814 33.2652 345.049 33.7955 344.489 34.4773C343.928 35.1439 343.648 36.0076 343.648 37.0682C343.648 38.5833 344.201 39.7273 345.307 40.5C346.413 41.2727 347.822 41.6591 349.534 41.6591ZM382.33 26.5455V47H374.102V12.0909H381.966V18.0227H382.375C383.178 16.0682 384.458 14.5152 386.216 13.3636C387.989 12.2121 390.178 11.6364 392.784 11.6364C395.193 11.6364 397.292 12.1515 399.08 13.1818C400.883 14.2121 402.277 15.7045 403.261 17.6591C404.261 19.6136 404.754 21.9848 404.739 24.7727V47H396.511V26.0455C396.511 23.7121 395.905 21.8864 394.693 20.5682C393.496 19.25 391.837 18.5909 389.716 18.5909C388.277 18.5909 386.996 18.9091 385.875 19.5455C384.769 20.1667 383.898 21.0682 383.261 22.25C382.64 23.4318 382.33 24.8636 382.33 26.5455ZM426.057 47.6136C423.314 47.6136 420.86 46.9091 418.693 45.5C416.527 44.0909 414.814 42.0455 413.557 39.3636C412.299 36.6818 411.67 33.4242 411.67 29.5909C411.67 25.7121 412.307 22.4394 413.58 19.7727C414.867 17.0909 416.602 15.0682 418.784 13.7045C420.966 12.3258 423.398 11.6364 426.08 11.6364C428.125 11.6364 429.807 11.9848 431.125 12.6818C432.443 13.3636 433.489 14.1894 434.261 15.1591C435.034 16.1136 435.633 17.0152 436.057 17.8636H436.398V0.454544H444.648V47H436.557V41.5H436.057C435.633 42.3485 435.019 43.25 434.216 44.2045C433.413 45.1439 432.352 45.947 431.034 46.6136C429.716 47.2803 428.057 47.6136 426.057 47.6136ZM428.352 40.8636C430.095 40.8636 431.58 40.3939 432.807 39.4545C434.034 38.5 434.966 37.1742 435.602 35.4773C436.239 33.7803 436.557 31.803 436.557 29.5455C436.557 27.2879 436.239 25.3258 435.602 23.6591C434.981 21.9924 434.057 20.697 432.83 19.7727C431.617 18.8485 430.125 18.3864 428.352 18.3864C426.519 18.3864 424.989 18.8636 423.761 19.8182C422.534 20.7727 421.61 22.0909 420.989 23.7727C420.367 25.4545 420.057 27.3788 420.057 29.5455C420.057 31.7273 420.367 33.6742 420.989 35.3864C421.625 37.0833 422.557 38.4242 423.784 39.4091C425.027 40.3788 426.549 40.8636 428.352 40.8636ZM468.869 47.6818C465.369 47.6818 462.347 46.9545 459.801 45.5C457.271 44.0303 455.324 41.9545 453.96 39.2727C452.597 36.5758 451.915 33.4015 451.915 29.75C451.915 26.1591 452.597 23.0076 453.96 20.2955C455.339 17.5682 457.263 15.447 459.733 13.9318C462.203 12.4015 465.104 11.6364 468.438 11.6364C470.589 11.6364 472.619 11.9848 474.528 12.6818C476.453 13.3636 478.15 14.4242 479.619 15.8636C481.104 17.303 482.271 19.1364 483.119 21.3636C483.968 23.5758 484.392 26.2121 484.392 29.2727V31.7955H455.778V26.25H476.506C476.491 24.6742 476.15 23.2727 475.483 22.0455C474.816 20.803 473.884 19.8258 472.688 19.1136C471.506 18.4015 470.127 18.0455 468.551 18.0455C466.869 18.0455 465.392 18.4545 464.119 19.2727C462.847 20.0758 461.854 21.1364 461.142 22.4545C460.445 23.7576 460.089 25.1894 460.074 26.75V31.5909C460.074 33.6212 460.445 35.3636 461.188 36.8182C461.93 38.2576 462.968 39.3636 464.301 40.1364C465.634 40.8939 467.195 41.2727 468.983 41.2727C470.18 41.2727 471.263 41.1061 472.233 40.7727C473.203 40.4242 474.044 39.9167 474.756 39.25C475.468 38.5833 476.006 37.7576 476.369 36.7727L484.051 37.6364C483.566 39.6667 482.642 41.4394 481.278 42.9545C479.93 44.4545 478.203 45.6212 476.097 46.4545C473.991 47.2727 471.581 47.6818 468.869 47.6818ZM518.943 21.3182L511.443 22.1364C511.231 21.3788 510.86 20.6667 510.33 20C509.814 19.3333 509.117 18.7955 508.239 18.3864C507.36 17.9773 506.284 17.7727 505.011 17.7727C503.299 17.7727 501.86 18.1439 500.693 18.8864C499.542 19.6288 498.973 20.5909 498.989 21.7727C498.973 22.7879 499.345 23.6136 500.102 24.25C500.875 24.8864 502.148 25.4091 503.92 25.8182L509.875 27.0909C513.178 27.803 515.633 28.9318 517.239 30.4773C518.86 32.0227 519.678 34.0455 519.693 36.5455C519.678 38.7424 519.034 40.6818 517.761 42.3636C516.504 44.0303 514.754 45.3333 512.511 46.2727C510.269 47.2121 507.693 47.6818 504.784 47.6818C500.511 47.6818 497.072 46.7879 494.466 45C491.86 43.197 490.307 40.6894 489.807 37.4773L497.83 36.7045C498.193 38.2803 498.966 39.4697 500.148 40.2727C501.33 41.0758 502.867 41.4773 504.761 41.4773C506.716 41.4773 508.284 41.0758 509.466 40.2727C510.663 39.4697 511.261 38.4773 511.261 37.2955C511.261 36.2955 510.875 35.4697 510.102 34.8182C509.345 34.1667 508.163 33.6667 506.557 33.3182L500.602 32.0682C497.254 31.3712 494.777 30.197 493.17 28.5455C491.564 26.8788 490.769 24.7727 490.784 22.2273C490.769 20.0758 491.352 18.2121 492.534 16.6364C493.731 15.0455 495.39 13.8182 497.511 12.9545C499.648 12.0758 502.11 11.6364 504.898 11.6364C508.989 11.6364 512.208 12.5076 514.557 14.25C516.92 15.9924 518.383 18.3485 518.943 21.3182Z" fill="black"/>
</svg>
