<svg width="48" height="48" viewBox="0 0 48 48" fill="none" xmlns="http://www.w3.org/2000/svg">
<mask id="mask0_99_20853" style="mask-type:alpha" maskUnits="userSpaceOnUse" x="0" y="0" width="48" height="48">
<rect width="48" height="48" fill="#D9D9D9"/>
</mask>
<g mask="url(#mask0_99_20853)">
<path d="M10.024 37.4878V39.9111C10.024 40.4137 9.85034 40.835 9.50307 41.1749C9.15577 41.5149 8.72977 41.6849 8.22507 41.6849H7.50007C6.99537 41.6849 6.56937 41.5114 6.22207 41.1644C5.87481 40.8173 5.70117 40.3916 5.70117 39.8872V23.6353L9.96312 10.8117C10.1457 10.2817 10.4559 9.86346 10.8936 9.55714C11.3313 9.25082 11.8334 9.09766 12.4001 9.09766H35.6001C36.1667 9.09766 36.6689 9.25082 37.1066 9.55714C37.5443 9.86346 37.8544 10.2817 38.037 10.8117L42.311 23.6353V39.8872C42.311 40.3916 42.1345 40.8173 41.7817 41.1644C41.4288 41.5114 41.0016 41.6849 40.5001 41.6849H39.7251C39.212 41.6849 38.7923 41.5149 38.4658 41.1749C38.1394 40.835 37.9762 40.4137 37.9762 39.9111V37.4878H10.024ZM10.2816 20.7005H37.7305L35.0164 12.5138H12.9838L10.2816 20.7005ZM14.3481 31.6332C15.1146 31.6332 15.7582 31.3708 16.2789 30.8462C16.7995 30.3216 17.0599 29.6845 17.0599 28.935C17.0599 28.1578 16.7954 27.4972 16.2664 26.9531C15.7374 26.409 15.1019 26.137 14.3599 26.137C13.5741 26.137 12.911 26.4079 12.3705 26.9496C11.8301 27.4914 11.5599 28.1493 11.5599 28.9233C11.5599 29.6972 11.829 30.3424 12.3671 30.8587C12.9053 31.375 13.5656 31.6332 14.3481 31.6332ZM33.7022 31.6332C34.48 31.6332 35.1411 31.3708 35.6856 30.8462C36.23 30.3216 36.5022 29.6845 36.5022 28.935C36.5022 28.1578 36.2312 27.4972 35.689 26.9531C35.1469 26.409 34.4885 26.137 33.714 26.137C32.9395 26.137 32.2939 26.4079 31.7772 26.9496C31.2606 27.4914 31.0022 28.1493 31.0022 28.9233C31.0022 29.6972 31.2647 30.3424 31.7897 30.8587C32.3147 31.375 32.9522 31.6332 33.7022 31.6332ZM9.10767 34.0837H38.8925V23.6984H9.10767V34.0837Z" fill="#A052FF"/>
</g>
</svg>
