<svg width="48" height="48" viewBox="0 0 48 48" fill="none" xmlns="http://www.w3.org/2000/svg">
<mask id="mask0_99_20859" style="mask-type:alpha" maskUnits="userSpaceOnUse" x="0" y="0" width="48" height="48">
<rect width="48" height="48" fill="#D9D9D9"/>
</mask>
<g mask="url(#mask0_99_20859)">
<path d="M24.0001 43.6872C21.1602 43.6872 18.5057 43.1566 16.0365 42.0954C13.5673 41.0341 11.4187 39.5882 9.59082 37.7576C7.76292 35.927 6.32434 33.7696 5.27507 31.2855C4.22581 28.8013 3.70117 26.1403 3.70117 23.3024C3.70117 20.4645 4.22581 17.8181 5.27507 15.3633C6.32434 12.9085 7.76292 10.7698 9.59082 8.94712C11.4187 7.12445 13.5673 5.69518 16.0365 4.65929C18.5057 3.62341 21.1602 3.10547 24.0001 3.10547C26.8399 3.10547 29.4945 3.62341 31.9637 4.65929C34.4329 5.69518 36.5814 7.12445 38.4093 8.94712C40.2372 10.7698 41.6778 12.9085 42.7311 15.3633C43.7843 17.8181 44.311 20.4645 44.311 23.3024C44.311 26.1403 43.7843 28.8013 42.7311 31.2855C41.6778 33.7696 40.2372 35.927 38.4093 37.7576C36.5814 39.5882 34.4329 41.0341 31.9637 42.0954C29.4945 43.1566 26.8399 43.6872 24.0001 43.6872ZM23.9881 40.3949C25.1309 39.2037 26.0919 37.8376 26.8713 36.2966C27.6506 34.7557 28.2943 32.9193 28.8022 30.7874H19.2479C19.7066 32.786 20.3256 34.5808 21.105 36.1717C21.8843 37.7627 22.8454 39.1704 23.9881 40.3949ZM19.774 39.7953C18.9327 38.5454 18.218 37.1877 17.63 35.722C17.0419 34.2564 16.5479 32.6115 16.1479 30.7874H8.69572C9.94646 33.1445 11.4012 34.9936 13.0599 36.3347C14.7186 37.6758 16.9566 38.8293 19.774 39.7953ZM28.2522 39.7453C30.6363 38.9872 32.7827 37.8439 34.6914 36.3157C36.6001 34.7874 38.1338 32.9446 39.2925 30.7874H31.9022C31.4689 32.5782 30.9626 34.2064 30.3832 35.6721C29.8039 37.1377 29.0936 38.4955 28.2522 39.7453ZM7.70767 27.8254H15.5979C15.4979 26.926 15.4396 26.1202 15.4229 25.408C15.4063 24.6958 15.3979 23.9939 15.3979 23.3024C15.3979 22.4696 15.4146 21.7325 15.4479 21.0909C15.4813 20.4493 15.5479 19.7288 15.6479 18.9293H7.70767C7.47434 19.7288 7.316 20.441 7.23267 21.0659C7.14934 21.6908 7.10767 22.4363 7.10767 23.3024C7.10767 24.1605 7.14934 24.929 7.23267 25.6078C7.316 26.2867 7.47434 27.0259 7.70767 27.8254ZM18.6979 27.8254H29.3522C29.4776 26.7927 29.555 25.9536 29.5843 25.308C29.6137 24.6625 29.6283 23.9939 29.6283 23.3024C29.6283 22.6362 29.6137 21.9989 29.5843 21.3907C29.555 20.7824 29.4776 19.9619 29.3522 18.9293H18.6979C18.5646 19.9619 18.4813 20.7824 18.4479 21.3907C18.4146 21.9989 18.3979 22.6362 18.3979 23.3024C18.3979 23.9939 18.4146 24.6625 18.4479 25.308C18.4813 25.9536 18.5646 26.7927 18.6979 27.8254ZM32.3522 27.8254H40.2805C40.5059 27.0259 40.6622 26.2867 40.7495 25.6078C40.8369 24.929 40.8805 24.1605 40.8805 23.3024C40.8805 22.4363 40.8369 21.6908 40.7495 21.0659C40.6622 20.441 40.5059 19.7288 40.2805 18.9293H32.4022C32.4863 20.1031 32.545 20.9922 32.5783 21.5965C32.6117 22.2008 32.6283 22.7694 32.6283 23.3024C32.6283 24.0273 32.6033 24.7125 32.5533 25.358C32.5033 26.0036 32.4363 26.826 32.3522 27.8254ZM31.8522 15.9553H39.2925C38.2004 13.6728 36.7001 11.7674 34.7914 10.2391C32.8827 8.71086 30.6863 7.63425 28.2022 7.00932C29.0436 8.23384 29.7539 9.56027 30.3332 10.9886C30.9126 12.417 31.4189 14.0726 31.8522 15.9553ZM19.2479 15.9553H28.8522C28.4936 14.2058 27.8809 12.5066 27.0142 10.8578C26.1476 9.20889 25.1389 7.75953 23.9881 6.50966C22.9454 7.40108 22.0593 8.57563 21.33 10.0333C20.6006 11.491 19.9066 13.465 19.2479 15.9553ZM8.69572 15.9553H16.1979C16.5646 14.1725 17.0253 12.5752 17.58 11.1635C18.1347 9.7518 18.8493 8.38373 19.724 7.05928C17.2319 7.68422 15.0586 8.74218 13.2039 10.2332C11.3492 11.7242 9.84646 13.6316 8.69572 15.9553Z" fill="#A052FF"/>
</g>
</svg>
