<svg width="48" height="48" viewBox="0 0 48 48" fill="none" xmlns="http://www.w3.org/2000/svg">
<mask id="mask0_99_20944" style="mask-type:alpha" maskUnits="userSpaceOnUse" x="0" y="0" width="48" height="48">
<rect width="48" height="48" fill="#D9D9D9"/>
</mask>
<g mask="url(#mask0_99_20944)">
<path d="M5.59375 22.4996V5.58105H22.5003V22.4996H5.59375ZM9.0003 19.0811H19.0938V8.99955H9.0003V19.0811ZM5.59375 42.4061V25.4996H22.5003V42.4061H5.59375ZM9.0003 38.9996H19.0938V28.9061H9.0003V38.9996ZM25.5003 22.4996V5.58105H42.4188V22.4996H25.5003ZM28.9188 19.0811H39.0003V8.99955H28.9188V19.0811ZM38.2112 42.4061V38.1985H42.4188V42.4061H38.2112ZM25.5003 29.7452V25.4996H29.7079V29.7452H25.5003ZM29.7079 33.9528V29.7452H33.9536V33.9528H29.7079ZM25.5003 38.1985V33.9528H29.7079V38.1985H25.5003ZM29.7079 42.4061V38.1985H33.9536V42.4061H29.7079ZM33.9536 38.1985V33.9528H38.2112V38.1985H33.9536ZM33.9536 29.7452V25.4996H38.2112V29.7452H33.9536ZM38.2112 33.9528V29.7452H42.4188V33.9528H38.2112Z" fill="#A052FF"/>
</g>
</svg>
