<svg width="42" height="42" viewBox="0 0 42 42" fill="none" xmlns="http://www.w3.org/2000/svg">
<path d="M21.0123 41.6867C18.5246 41.4202 16.0668 40.7146 13.6389 39.5698C11.2109 38.425 9.03734 36.8442 7.1182 34.8274C5.19904 32.8106 3.64779 30.331 2.46445 27.3884C1.28112 24.4459 0.689453 21.0351 0.689453 17.156V14.9454H2.8884C4.5961 14.9454 6.4368 15.2789 8.4105 15.9458C10.3842 16.6127 12.1257 17.4553 13.6352 18.4734C13.9358 15.4673 14.7781 12.3637 16.1622 9.16281C17.5463 5.96189 19.1551 3.21296 20.9884 0.916016C22.8217 3.21296 24.4345 5.96189 25.8266 9.16281C27.2186 12.3637 28.065 15.4673 28.3656 18.4734C29.9069 17.506 31.6556 16.6761 33.6118 15.9838C35.5679 15.2915 37.4293 14.9454 39.196 14.9454H41.3113V17.0484C41.3113 20.951 40.7216 24.3816 39.5422 27.3403C38.3629 30.299 36.8152 32.7892 34.8993 34.811C32.9833 36.8328 30.8138 38.4156 28.3906 39.5594C25.9674 40.7031 23.508 41.4122 21.0123 41.6867ZM21.2689 38.2087C20.8783 32.1006 19.0963 27.4705 15.9231 24.3183C12.7498 21.1662 8.82414 19.2052 4.146 18.4354C4.59527 24.7448 6.45632 29.4658 9.72915 32.5984C13.002 35.731 16.8486 37.6011 21.2689 38.2087ZM20.9623 25.6087C21.4369 24.7506 22.0567 23.8597 22.8216 22.9361C23.5864 22.0124 24.3482 21.2135 25.1069 20.5394C25.2417 18.3141 24.9123 16.0974 24.1189 13.8891C23.3254 11.6808 22.2819 9.34751 20.9884 6.88908C19.7188 9.30767 18.6853 11.6291 17.8879 13.8533C17.0904 16.0775 16.7591 18.3062 16.8939 20.5394C17.6366 21.1737 18.3857 21.9701 19.1413 22.9285C19.8969 23.8868 20.5039 24.7802 20.9623 25.6087ZM24.6754 37.2636C26.1942 36.7054 27.7032 35.9612 29.2023 35.0312C30.7014 34.1012 32.0576 32.9001 33.2709 31.4279C34.4842 29.9558 35.5038 28.1539 36.3298 26.0222C37.1558 23.8906 37.6562 21.3616 37.8308 18.4354C34.4011 19.0097 31.3741 20.2353 28.7498 22.1122C26.1255 23.9892 24.1721 26.3202 22.8895 29.1052C23.2895 30.3727 23.6455 31.6406 23.9574 32.9092C24.2694 34.1777 24.5087 35.6291 24.6754 37.2636Z" fill="#A052FF"/>
</svg>
