<svg width="46" height="32" viewBox="0 0 46 32" fill="none" xmlns="http://www.w3.org/2000/svg">
<path d="M23.0055 24.4996C25.3682 24.4996 27.3746 23.6726 29.0246 22.0187C30.6746 20.3648 31.4996 18.3565 31.4996 15.9937C31.4996 13.631 30.6726 11.6246 29.0187 9.97461C27.3648 8.32461 25.3565 7.49961 22.9937 7.49961C20.631 7.49961 18.6246 8.32658 16.9746 9.98051C15.3246 11.6344 14.4996 13.6427 14.4996 16.0055C14.4996 18.3682 15.3266 20.3746 16.9805 22.0246C18.6344 23.6746 20.6427 24.4996 23.0055 24.4996ZM22.9907 21.4083C21.4858 21.4083 20.2096 20.8816 19.1621 19.8282C18.1146 18.7747 17.5909 17.4956 17.5909 15.9907C17.5909 14.4858 18.1176 13.2096 19.1711 12.1621C20.2245 11.1146 21.5037 10.5909 23.0086 10.5909C24.5135 10.5909 25.7896 11.1176 26.8371 12.1711C27.8846 13.2245 28.4083 14.5037 28.4083 16.0086C28.4083 17.5135 27.8816 18.7896 26.8282 19.8371C25.7747 20.8846 24.4956 21.4083 22.9907 21.4083ZM22.9996 31.2746C18.0692 31.2746 13.6134 29.8634 9.63221 27.0409C5.65104 24.2184 2.68184 20.538 0.724609 15.9996C2.68184 11.4612 5.65104 7.78078 9.63221 4.95831C13.6134 2.13584 18.0692 0.724609 22.9996 0.724609C27.93 0.724609 32.3858 2.13584 36.367 4.95831C40.3482 7.78078 43.3174 11.4612 45.2746 15.9996C43.3174 20.538 40.3482 24.2184 36.367 27.0409C32.3858 29.8634 27.93 31.2746 22.9996 31.2746ZM22.9923 27.9996C27.0255 27.9996 30.731 26.9079 34.1089 24.7246C37.4868 22.5413 40.059 19.6329 41.8257 15.9996C40.059 12.3663 37.4892 9.45794 34.1163 7.27461C30.7433 5.09128 27.0402 3.99961 23.007 3.99961C18.9737 3.99961 15.2682 5.09128 11.8903 7.27461C8.51244 9.45794 5.92351 12.3663 4.12351 15.9996C5.92351 19.6329 8.50999 22.5413 11.883 24.7246C15.2559 26.9079 18.959 27.9996 22.9923 27.9996Z" fill="#A052FF"/>
</svg>
